<mxfile host="app.diagrams.net" modified="2024-03-20T09:18:42.955Z" agent="Mozilla/5.0 (Windows NT 10.0; Win64; x64) AppleWebKit/537.36 (KHTML, like Gecko) Chrome/122.0.0.0 Safari/537.36" etag="Q0tpxuZuwgET7HfXegie" version="24.0.7" type="github">
  <diagram name="Page-1" id="8gbzFIBmaU0cuELOePIC">
    <mxGraphModel dx="1500" dy="746" grid="1" gridSize="10" guides="1" tooltips="1" connect="1" arrows="1" fold="1" page="1" pageScale="1" pageWidth="2000" pageHeight="1000" math="0" shadow="0">
      <root>
        <mxCell id="0" />
        <mxCell id="1" parent="0" />
        <mxCell id="UPVNAUWlPWrRQLQZiTOI-1" value="" style="rounded=0;whiteSpace=wrap;html=1;rotation=90;" vertex="1" parent="1">
          <mxGeometry x="19.06" y="440.63" width="610" height="183.75" as="geometry" />
        </mxCell>
        <mxCell id="UPVNAUWlPWrRQLQZiTOI-19" style="edgeStyle=orthogonalEdgeStyle;rounded=0;orthogonalLoop=1;jettySize=auto;html=1;exitX=0.5;exitY=0.5;exitDx=0;exitDy=0;exitPerimeter=0;" edge="1" parent="1" source="UPVNAUWlPWrRQLQZiTOI-7" target="UPVNAUWlPWrRQLQZiTOI-12">
          <mxGeometry relative="1" as="geometry" />
        </mxCell>
        <mxCell id="UPVNAUWlPWrRQLQZiTOI-20" style="edgeStyle=orthogonalEdgeStyle;rounded=0;orthogonalLoop=1;jettySize=auto;html=1;exitX=0.5;exitY=0.5;exitDx=0;exitDy=0;exitPerimeter=0;entryX=0;entryY=0.5;entryDx=0;entryDy=0;" edge="1" parent="1" source="UPVNAUWlPWrRQLQZiTOI-7" target="UPVNAUWlPWrRQLQZiTOI-13">
          <mxGeometry relative="1" as="geometry" />
        </mxCell>
        <mxCell id="UPVNAUWlPWrRQLQZiTOI-22" style="edgeStyle=orthogonalEdgeStyle;rounded=0;orthogonalLoop=1;jettySize=auto;html=1;exitX=0.5;exitY=0.5;exitDx=0;exitDy=0;exitPerimeter=0;entryX=0;entryY=0.5;entryDx=0;entryDy=0;" edge="1" parent="1" source="UPVNAUWlPWrRQLQZiTOI-7" target="UPVNAUWlPWrRQLQZiTOI-14">
          <mxGeometry relative="1" as="geometry" />
        </mxCell>
        <mxCell id="UPVNAUWlPWrRQLQZiTOI-7" value="Customer" style="shape=umlActor;verticalLabelPosition=bottom;verticalAlign=top;html=1;outlineConnect=0;" vertex="1" parent="1">
          <mxGeometry x="60" y="260" width="30" height="60" as="geometry" />
        </mxCell>
        <mxCell id="UPVNAUWlPWrRQLQZiTOI-24" style="edgeStyle=orthogonalEdgeStyle;rounded=0;orthogonalLoop=1;jettySize=auto;html=1;exitX=0.5;exitY=0.5;exitDx=0;exitDy=0;exitPerimeter=0;entryX=0;entryY=0.5;entryDx=0;entryDy=0;" edge="1" parent="1" source="UPVNAUWlPWrRQLQZiTOI-11" target="UPVNAUWlPWrRQLQZiTOI-15">
          <mxGeometry relative="1" as="geometry" />
        </mxCell>
        <mxCell id="UPVNAUWlPWrRQLQZiTOI-25" style="edgeStyle=orthogonalEdgeStyle;rounded=0;orthogonalLoop=1;jettySize=auto;html=1;exitX=0.5;exitY=0.5;exitDx=0;exitDy=0;exitPerimeter=0;" edge="1" parent="1" source="UPVNAUWlPWrRQLQZiTOI-11" target="UPVNAUWlPWrRQLQZiTOI-16">
          <mxGeometry relative="1" as="geometry" />
        </mxCell>
        <mxCell id="UPVNAUWlPWrRQLQZiTOI-26" style="edgeStyle=orthogonalEdgeStyle;rounded=0;orthogonalLoop=1;jettySize=auto;html=1;exitX=0.5;exitY=0.5;exitDx=0;exitDy=0;exitPerimeter=0;entryX=0;entryY=0.5;entryDx=0;entryDy=0;" edge="1" parent="1" source="UPVNAUWlPWrRQLQZiTOI-11" target="UPVNAUWlPWrRQLQZiTOI-18">
          <mxGeometry relative="1" as="geometry" />
        </mxCell>
        <mxCell id="UPVNAUWlPWrRQLQZiTOI-11" value="Bank System&lt;div&gt;&lt;br&gt;&lt;/div&gt;" style="shape=umlActor;verticalLabelPosition=bottom;verticalAlign=top;html=1;outlineConnect=0;" vertex="1" parent="1">
          <mxGeometry x="60" y="620" width="30" height="60" as="geometry" />
        </mxCell>
        <mxCell id="UPVNAUWlPWrRQLQZiTOI-12" value="WITHRAW CASH" style="ellipse;whiteSpace=wrap;html=1;" vertex="1" parent="1">
          <mxGeometry x="260.93" y="240" width="120" height="80" as="geometry" />
        </mxCell>
        <mxCell id="UPVNAUWlPWrRQLQZiTOI-13" value="DEPOSIT CASH" style="ellipse;whiteSpace=wrap;html=1;" vertex="1" parent="1">
          <mxGeometry x="260.93" y="340" width="120" height="80" as="geometry" />
        </mxCell>
        <mxCell id="UPVNAUWlPWrRQLQZiTOI-14" value="CHECK BALANCE" style="ellipse;whiteSpace=wrap;html=1;" vertex="1" parent="1">
          <mxGeometry x="260.93" y="440" width="120" height="80" as="geometry" />
        </mxCell>
        <mxCell id="UPVNAUWlPWrRQLQZiTOI-15" value="CHANGE PIN" style="ellipse;whiteSpace=wrap;html=1;" vertex="1" parent="1">
          <mxGeometry x="260.93" y="540" width="120" height="80" as="geometry" />
        </mxCell>
        <mxCell id="UPVNAUWlPWrRQLQZiTOI-16" value="TRANSFER FUNDS" style="ellipse;whiteSpace=wrap;html=1;" vertex="1" parent="1">
          <mxGeometry x="260.93" y="640" width="120" height="80" as="geometry" />
        </mxCell>
        <mxCell id="UPVNAUWlPWrRQLQZiTOI-18" value="PRINT MINI-STATEMENT" style="ellipse;whiteSpace=wrap;html=1;" vertex="1" parent="1">
          <mxGeometry x="260.93" y="740" width="120" height="80" as="geometry" />
        </mxCell>
      </root>
    </mxGraphModel>
  </diagram>
</mxfile>
